# xmcd
#
# Track frame offsets: 
#        150
#        11980
#        23138
#        36010
#        50876
#        63824
#        76375
#        87161
#        100661
#        112144
#        124207
#        139600
#        152892
#        165613
#        178539
#        190943
#        199851
#        213243
#        224507
#        236436
#        248204
#        260069
#        272567
#        283053
#
# Disc length: 3946 seconds
#
# Revision: 0
# Processed by: cddbd v1.5.1PL2 Copyright (c) Steve Scherf et al.
# Submitted via: ExactAudioCopy v0.95a5
#
DISCID=610f6818
DTITLE=Sonny Boy Williamson - Down And Out Blues In Memorium
DYEAR=2004
DGENRE=Blues
TTITLE0=01. Don't Start Me To Talkin'
TTITLE1=02. I Don't Know
TTITLE2=03. All my Love In Vain
TTITLE3=04. The Key (To Your Door)
TTITLE4=05. Keep It To Yourself
TTITLE5=06. Dissatisfied
TTITLE6=07. Fattening Frogs For Snakes
TTITLE7=08. Wake Up Baby
TTITLE8=09. Your Funeral And My Trial
TTITLE9=10. 99
TTITLE10=11. Cross My Heart
TTITLE11=12. Let Me Explain
TTITLE12=13. One Way Out
TTITLE13=14. Too Young To Die
TTITLE14=15. Trust My Baby
TTITLE15=16. Checkin' Up On My Baby
TTITLE16=17. Sad To Be Alone
TTITLE17=18. Got To Move
TTITLE18=19. Bring It On Home
TTITLE19=20. Down Child
TTITLE20=21. Peach Tree
TTITLE21=22. Dissatisfied
TTITLE22=23. That's All I Want
TTITLE23=24. Too Old To Think
EXTD=
EXTT0=
EXTT1=
EXTT2=
EXTT3=
EXTT4=
EXTT5=
EXTT6=
EXTT7=
EXTT8=
EXTT9=
EXTT10=
EXTT11=
EXTT12=
EXTT13=
EXTT14=
EXTT15=
EXTT16=
EXTT17=
EXTT18=
EXTT19=
EXTT20=
EXTT21=
EXTT22=
EXTT23=
PLAYORDER=
